
<svg width="400" height="122" viewBox="0 0 400 122" fill="none" xmlns="http://www.w3.org/2000/svg">
<path d="M13.3867 88.7812L36.2656 33.9375H52.5039L75.3828 88.7812H59.6289L42.6602 45.9727H46.0156L29.1406 88.7812H13.3867ZM31.5977 77.9961L36.0234 66.582H62.5195L67.0391 77.9961H31.5977Z" fill="black"/>
<path d="M75.7188 78.625V44.457H90.418V78.043C90.418 84.9922 94.4766 89.3672 100.965 89.3672C107.453 89.3672 111.512 84.9922 111.512 78.043V44.457H126.211V78.625C126.211 94.0039 116.324 101.637 100.965 101.637C85.6055 101.637 75.7188 94.0039 75.7188 78.625Z" fill="black"/>
<path d="M133.668 88.7812V33.9375H148.367V76.7266H182.559V88.7812H133.668Z" fill="black"/>
<path d="M187.184 88.7812V33.9375H201.883V76.7266H236.074V88.7812H187.184Z" fill="black"/>
<path d="M243.727 61.5977C243.727 44.9492 256.066 32.5742 274.887 32.5742C286.398 32.5742 295.598 37.0898 300.867 45.3867L289.746 52.3398C286.789 47.8242 281.668 45.0938 274.887 45.0938C264.609 45.0938 258.414 51.9648 258.414 61.5977C258.414 71.2305 264.609 78.1016 274.887 78.1016C281.668 78.1016 286.789 75.3711 289.746 70.8555L300.867 77.8086C295.598 86.1055 286.398 90.6211 274.887 90.6211C256.066 90.6211 243.727 78.2461 243.727 61.5977Z" fill="black"/>
<path d="M304.008 88.7812V33.9375H345.109V45.9922H318.707V54.9961H342.805V67.0508H318.707V76.7266H345.109V88.7812H304.008Z" fill="black"/>
<path d="M364.824 99.7734C357.359 99.7734 350.723 97.918 346.371 94.5625L351.93 84.5781C354.66 87.0625 359.305 88.7812 364.387 88.7812C372.004 88.7812 377.027 84.7227 377.027 77.7695V77.0898H376.59C373.691 81.0039 368.594 83.0508 362.629 83.0508C348.758 83.0508 339.824 73.7891 339.824 59.7852C339.824 45.7812 348.758 36.5195 362.629 36.5195C368.594 36.5195 373.691 38.5664 376.59 42.4805H377.027V38.0938H391.727V77.0898C391.727 91.0234 381.164 99.7734 364.824 99.7734ZM366.398 72.0508C373.035 72.0508 377.316 67.168 377.316 59.7852C377.316 52.4023 373.035 47.5195 366.398 47.5195C359.762 47.5195 355.48 52.4023 355.48 59.7852C355.48 67.168 359.762 72.0508 366.398 72.0508Z" fill="black"/>
<path d="M395.211 88.7812V33.9375H409.91V88.7812H395.211Z" fill="black"/>
<circle cx="367" cy="61" r="22" fill="#40CADB"/>
</svg>
